<svg xmlns="http://www.w3.org/2000/svg" width="15.001" height="16.946" viewBox="0 0 15.001 16.946">
  <g id="delivery-box" transform="translate(-29.372)">
    <g id="Group_2626" data-name="Group 2626" transform="translate(29.372)">
      <path id="Path_3726" data-name="Path 3726" d="M44.336,237.385l-1.186-2.33a.331.331,0,0,0-.3-.181H30.889a.331.331,0,0,0-.3.181l-1.186,2.33a.331.331,0,0,0,.3.481h.413v5.845a.331.331,0,0,0,.331.331H43.3a.331.331,0,0,0,.331-.331v-5.845h.414a.331.331,0,0,0,.3-.481Zm-1.684-1.848L43.5,237.2h-5.24l-.849-1.667Zm-11.56,0h5.24l-.849,1.667h-5.24Zm11.873,7.844H37.2v-1.835a.331.331,0,0,0-.662,0v1.835H30.778v-5.514h4.907a.331.331,0,0,0,.3-.181l.56-1.1v1.986a.331.331,0,1,0,.662,0v-1.986l.56,1.1a.331.331,0,0,0,.3.181h4.906Z" transform="translate(-29.372 -227.096)" fill="#b5c4b5"/>
      <path id="Path_3727" data-name="Path 3727" d="M105.635,436.98h-1.886a.331.331,0,1,0,0,.662h1.886a.331.331,0,1,0,0-.662Z" transform="translate(-100.966 -422.51)" fill="#b5c4b5"/>
      <path id="Path_3728" data-name="Path 3728" d="M156.624,6.8a3.4,3.4,0,1,0-3.4-3.4A3.4,3.4,0,0,0,156.624,6.8Zm0-6.142A2.74,2.74,0,1,1,153.887,3.4,2.741,2.741,0,0,1,156.624.662Z" transform="translate(-149.124)" fill="#b5c4b5"/>
      <path id="Path_3729" data-name="Path 3729" d="M207.622,64.605l.881.747a.331.331,0,0,0,.214.079h.028a.331.331,0,0,0,.226-.117l1.659-1.982a.331.331,0,1,0-.508-.425l-1.445,1.727-.627-.532a.331.331,0,0,0-.428.505Z" transform="translate(-201.607 -60.707)" fill="#b5c4b5"/>
      <path id="Path_3730" data-name="Path 3730" d="M49.751,93.382h1.433a.331.331,0,1,0,0-.662H49.751a.331.331,0,1,0,0,.662Z" transform="translate(-48.756 -89.65)" fill="#b5c4b5"/>
      <path id="Path_3731" data-name="Path 3731" d="M49.6,24.914l1.433.756a.331.331,0,1,0,.309-.586L49.9,24.328a.331.331,0,0,0-.309.586Z" transform="translate(-48.755 -23.486)" fill="#b5c4b5"/>
      <path id="Path_3732" data-name="Path 3732" d="M49.456,139.6a.331.331,0,0,0,.447.139l1.433-.755a.331.331,0,0,0-.309-.586l-1.433.755A.331.331,0,0,0,49.456,139.6Z" transform="translate(-48.754 -133.774)" fill="#b5c4b5"/>
      <path id="Path_3733" data-name="Path 3733" d="M399.362,93.382h1.433a.331.331,0,1,0,0-.662h-1.433a.331.331,0,1,0,0,.662Z" transform="translate(-386.79 -89.65)" fill="#b5c4b5"/>
      <path id="Path_3734" data-name="Path 3734" d="M399.361,25.708a.33.33,0,0,0,.154-.038l1.433-.756a.331.331,0,0,0-.309-.586l-1.433.756a.331.331,0,0,0,.155.624Z" transform="translate(-386.789 -23.485)" fill="#b5c4b5"/>
      <path id="Path_3735" data-name="Path 3735" d="M399.205,138.978l1.433.755a.331.331,0,0,0,.309-.586l-1.433-.755a.331.331,0,0,0-.309.586Z" transform="translate(-386.788 -133.772)" fill="#b5c4b5"/>
      <path id="Path_3736" data-name="Path 3736" d="M246.2,381.423a.331.331,0,0,0-.331.331v0a.331.331,0,1,0,.331-.333Z" transform="translate(-238.704 -368.793)" fill="#b5c4b5"/>
    </g>
  </g>
</svg>
