<svg xmlns="http://www.w3.org/2000/svg" width="20" height="19.999" viewBox="0 0 20 19.999">
  <path id="Path_3387" data-name="Path 3387" d="M503,494a10,10,0,1,0,10,10,10,10,0,0,0-10-10Zm.605,14.454v1.158a.31.31,0,0,1-.321.312h-.771a.313.313,0,0,1-.327-.312v-1.056a6.617,6.617,0,0,1-1.97-.388.619.619,0,0,1-.379-.731l.126-.491a.619.619,0,0,1,.822-.423,4.968,4.968,0,0,0,1.779.347c.828,0,1.4-.321,1.4-.9,0-.555-.465-.9-1.543-1.266-1.557-.525-2.624-1.252-2.624-2.665a2.693,2.693,0,0,1,2.457-2.59v-1.056a.348.348,0,0,1,.336-.342h.771a.328.328,0,0,1,.312.342v.954a5.762,5.762,0,0,1,1.577.261.623.623,0,0,1,.412.742l-.111.437a.623.623,0,0,1-.306.391.6.6,0,0,1-.493.04,4.473,4.473,0,0,0-1.473-.242c-.946,0-1.252.408-1.252.816,0,.48.51.786,1.747,1.252,1.732.612,2.429,1.411,2.429,2.722a2.788,2.788,0,0,1-2.595,2.692Zm0,0" transform="translate(-493 -494)" fill="#50cb93"/>
</svg>
