<svg xmlns="http://www.w3.org/2000/svg" width="19" height="15" viewBox="0 0 19 15">
  <path id="Shape_547" data-name="Shape 547" d="M2720.124,71a1.408,1.408,0,0,1-1.374-1.293,1.435,1.435,0,0,1,1.073-1.552,1.685,1.685,0,0,1,.381-.033c.771,0,1.543,0,2.316,0v0c.8,0,1.607-.012,2.411,0a1.379,1.379,0,0,1,1.309,1.226,1.412,1.412,0,0,1-1.369,1.646q-1.356.006-2.712.006Q2721.141,71,2720.124,71Zm2.373-6.058h-5.821a1.374,1.374,0,0,1-1.307-.981,1.467,1.467,0,0,1,.458-1.592,1.408,1.408,0,0,1,.929-.306q4.059.005,8.118,0c1.156,0,2.31,0,3.466,0a1.4,1.4,0,0,1,1.354,1.268,1.437,1.437,0,0,1-.981,1.544,1.762,1.762,0,0,1-.49.061q-1.909,0-3.817,0Zm4.978-6.059H2722.5q-4.022,0-8.042,0a1.387,1.387,0,0,1-1.43-1.174,1.429,1.429,0,0,1,1.282-1.7c.045,0,.09,0,.134,0h16.142a1.439,1.439,0,0,1,.051,2.876q-.677.005-1.354,0Z" transform="translate(-2712.999 -56)"/>
</svg>
