<svg xmlns="http://www.w3.org/2000/svg" width="23.33" height="23.333" viewBox="0 0 23.33 23.333">
  <path id="home" d="M23.2,10.148l0,0L13.684.629a2.148,2.148,0,0,0-3.038,0L1.133,10.142l-.01.01a2.147,2.147,0,0,0,1.429,3.66c.022,0,.044,0,.066,0H3v7a2.517,2.517,0,0,0,2.514,2.514H9.236a.684.684,0,0,0,.684-.684V17.158a1.148,1.148,0,0,1,1.147-1.147h2.2a1.148,1.148,0,0,1,1.147,1.147v5.492a.684.684,0,0,0,.684.684h3.724a2.517,2.517,0,0,0,2.514-2.514v-7h.352a2.148,2.148,0,0,0,1.52-3.666Zm-.968,2.07a.776.776,0,0,1-.552.229H20.648a.684.684,0,0,0-.684.684v7.688a1.148,1.148,0,0,1-1.147,1.147h-3.04V17.158a2.517,2.517,0,0,0-2.514-2.514h-2.2a2.517,2.517,0,0,0-2.514,2.514v4.808H5.513a1.148,1.148,0,0,1-1.147-1.147V13.131a.684.684,0,0,0-.684-.684H2.632a.78.78,0,0,1-.538-1.332h0L11.613,1.6a.78.78,0,0,1,1.1,0l9.515,9.516,0,0a.783.783,0,0,1,0,1.1Zm0,0" transform="translate(-0.5 0.001)" fill="#fff"/>
</svg>
