<svg id="Group_2627" data-name="Group 2627" xmlns="http://www.w3.org/2000/svg" width="17.118" height="14.946" viewBox="0 0 17.118 14.946">
  <path id="Path_3739" data-name="Path 3739" d="M251.68,263.75h-2.326A1.155,1.155,0,0,0,248.2,264.9v1.784a1.155,1.155,0,0,0,1.154,1.154h2.326a1.155,1.155,0,0,0,1.154-1.154V264.9A1.155,1.155,0,0,0,251.68,263.75Zm.315,2.938a.316.316,0,0,1-.315.315h-2.326a.316.316,0,0,1-.315-.315V264.9a.316.316,0,0,1,.315-.315h2.326a.316.316,0,0,1,.315.315Z" transform="translate(-239.519 -255.611)" fill="#b5c4b5"/>
  <path id="Path_3740" data-name="Path 3740" d="M17.118,35.947a.39.39,0,0,0-.056-.206l-2.546-4.477a.422.422,0,0,0-.364-.213H2.963a.415.415,0,0,0-.364.213L.056,35.74A.424.424,0,0,0,0,35.947a2.455,2.455,0,0,0,1.469,2.246v7.384a.421.421,0,0,0,.42.42H15.226a.421.421,0,0,0,.42-.42V38.245a.185.185,0,0,0,0-.045A2.462,2.462,0,0,0,17.118,35.947ZM3.207,31.893h10.7l1.99,3.5H1.221Zm8.975,4.337a1.613,1.613,0,0,1-3.176,0Zm-4.068,0a1.615,1.615,0,0,1-3.179,0Zm-7.247,0H4.047a1.615,1.615,0,0,1-3.179,0Zm6.184,8.926H4.638v-4.53a.6.6,0,0,1,.6-.6H6.457a.6.6,0,0,1,.6.6v4.53Zm7.755,0H7.891v-4.53a1.44,1.44,0,0,0-1.438-1.438H5.233A1.44,1.44,0,0,0,3.8,40.627V45.16H2.309V38.4c.049,0,.1,0,.147,0a2.452,2.452,0,0,0,2.036-1.084,2.453,2.453,0,0,0,4.071,0,2.447,2.447,0,0,0,4.064,0A2.452,2.452,0,0,0,14.663,38.4c.049,0,.094,0,.143,0v6.758Zm-.143-7.594a1.612,1.612,0,0,1-1.588-1.329h3.179A1.622,1.622,0,0,1,14.663,37.563Z" transform="translate(0 -31.05)" fill="#b5c4b5"/>
</svg>
