<svg xmlns="http://www.w3.org/2000/svg" width="16" height="14" viewBox="0 0 16 14">
  <g id="shopping-cart" transform="translate(0 -40.283)">
    <path id="Path_3722" data-name="Path 3722" d="M15.762,44.981a1.091,1.091,0,0,0-.87-.433H11.811L10.14,40.575a.462.462,0,0,0-.617-.251.494.494,0,0,0-.242.641l1.507,3.583H5.212l1.507-3.583a.494.494,0,0,0-.242-.641.462.462,0,0,0-.617.251L4.189,44.548H1.107a1.091,1.091,0,0,0-.87.433,1.154,1.154,0,0,0-.21.953L1.673,53.4a1.108,1.108,0,0,0,1.08.885H13.247a1.108,1.108,0,0,0,1.08-.885l1.646-7.463a1.154,1.154,0,0,0-.21-.953Zm-2.515,8.328H2.753a.169.169,0,0,1-.166-.129L.941,45.717a.153.153,0,0,1,.029-.129.168.168,0,0,1,.137-.066H3.779l-.123.292a.494.494,0,0,0,.242.641.452.452,0,0,0,.187.041.469.469,0,0,0,.43-.292l.287-.682h6.4l.287.682a.468.468,0,0,0,.43.292.452.452,0,0,0,.187-.041.494.494,0,0,0,.242-.641l-.123-.292h2.672a.168.168,0,0,1,.137.066.153.153,0,0,1,.029.129L13.413,53.18a.169.169,0,0,1-.166.129Z" transform="translate(0 0)" fill="#b5c4b5"/>
    <path id="Path_3723" data-name="Path 3723" d="M151.483,266.717a.483.483,0,0,0-.483.483v3.544a.483.483,0,1,0,.966,0V267.2A.483.483,0,0,0,151.483,266.717Z" transform="translate(-146.29 -219.061)" fill="#b5c4b5"/>
    <path id="Path_3724" data-name="Path 3724" d="M241.483,266.717a.483.483,0,0,0-.483.483v3.544a.483.483,0,1,0,.966,0V267.2A.483.483,0,0,0,241.483,266.717Z" transform="translate(-233.483 -219.061)" fill="#b5c4b5"/>
    <path id="Path_3725" data-name="Path 3725" d="M331.483,266.717a.483.483,0,0,0-.483.483v3.544a.483.483,0,1,0,.966,0V267.2A.483.483,0,0,0,331.483,266.717Z" transform="translate(-320.676 -219.061)" fill="#b5c4b5"/>
  </g>
</svg>
