<svg xmlns="http://www.w3.org/2000/svg" width="12.793" height="15.334" viewBox="0 0 12.793 15.334">
  <g id="user" transform="translate(0 0)">
    <path id="Path_3737" data-name="Path 3737" d="M90.725,7.387A3.574,3.574,0,0,0,93.336,6.3a3.574,3.574,0,0,0,1.082-2.611,3.574,3.574,0,0,0-1.082-2.611,3.692,3.692,0,0,0-5.223,0,3.574,3.574,0,0,0-1.082,2.611A3.574,3.574,0,0,0,88.114,6.3,3.575,3.575,0,0,0,90.725,7.387ZM88.749,1.717a2.794,2.794,0,0,1,3.952,0,2.67,2.67,0,0,1,.819,1.976A2.67,2.67,0,0,1,92.7,5.669a2.793,2.793,0,0,1-3.952,0,2.669,2.669,0,0,1-.819-1.976,2.67,2.67,0,0,1,.819-1.976Zm0,0" transform="translate(-84.425)" fill="#b5c4b5"/>
    <path id="Path_3738" data-name="Path 3738" d="M12.762,251.7a9.121,9.121,0,0,0-.124-.969,7.634,7.634,0,0,0-.238-.974,4.812,4.812,0,0,0-.4-.909,3.425,3.425,0,0,0-.6-.787,2.662,2.662,0,0,0-.867-.545,3,3,0,0,0-1.107-.2,1.124,1.124,0,0,0-.6.255c-.18.117-.39.253-.625.4a3.583,3.583,0,0,1-.809.356,3.142,3.142,0,0,1-1.979,0,3.572,3.572,0,0,1-.808-.356c-.233-.149-.443-.284-.626-.4a1.123,1.123,0,0,0-.6-.255,2.994,2.994,0,0,0-1.107.2,2.66,2.66,0,0,0-.868.545,3.426,3.426,0,0,0-.6.787,4.821,4.821,0,0,0-.4.909,7.652,7.652,0,0,0-.238.974,9.06,9.06,0,0,0-.124.969c-.02.293-.031.6-.031.905a2.546,2.546,0,0,0,.756,1.926,2.722,2.722,0,0,0,1.949.711h7.383a2.722,2.722,0,0,0,1.949-.711,2.545,2.545,0,0,0,.756-1.926c0-.309-.011-.614-.031-.906Zm-1.345,2.181a1.833,1.833,0,0,1-1.329.463H2.7a1.833,1.833,0,0,1-1.329-.463A1.663,1.663,0,0,1,.9,252.606c0-.287.009-.571.028-.843a8.171,8.171,0,0,1,.112-.873,6.749,6.749,0,0,1,.21-.859,3.925,3.925,0,0,1,.326-.739,2.539,2.539,0,0,1,.444-.582,1.766,1.766,0,0,1,.577-.359,2.068,2.068,0,0,1,.708-.137c.031.017.088.049.178.108.185.12.4.258.633.408a4.453,4.453,0,0,0,1.016.454,4.04,4.04,0,0,0,2.532,0,4.458,4.458,0,0,0,1.016-.454c.241-.154.448-.287.633-.408.091-.059.147-.091.178-.108a2.07,2.07,0,0,1,.708.137,1.769,1.769,0,0,1,.577.359,2.532,2.532,0,0,1,.444.582,3.912,3.912,0,0,1,.326.739,6.733,6.733,0,0,1,.21.859,8.24,8.24,0,0,1,.112.873h0c.019.271.029.555.029.843a1.663,1.663,0,0,1-.477,1.275Zm0,0" transform="translate(0 -239.909)" fill="#b5c4b5"/>
  </g>
</svg>
